<svg width="237" height="56" viewBox="0 0 237 56" fill="none" xmlns="http://www.w3.org/2000/svg">
<rect width="236.63" height="56" fill="#5A98D0"/>
<path d="M85.8401 31.7734H91.2307V33H84.3323V21.625H85.8401V31.7734ZM96.8629 33.1562C95.7171 33.1562 94.7848 32.7812 94.066 32.0312C93.3473 31.276 92.9879 30.2682 92.9879 29.0078V28.7422C92.9879 27.9036 93.1468 27.1562 93.4645 26.5C93.7874 25.8385 94.2353 25.3229 94.8082 24.9531C95.3863 24.5781 96.0113 24.3906 96.6832 24.3906C97.7822 24.3906 98.6363 24.7526 99.2457 25.4766C99.8551 26.2005 100.16 27.237 100.16 28.5859V29.1875H94.4332C94.454 30.0208 94.6962 30.6953 95.1598 31.2109C95.6285 31.7214 96.2223 31.9766 96.941 31.9766C97.4514 31.9766 97.8837 31.8724 98.2379 31.6641C98.5921 31.4557 98.902 31.1797 99.1676 30.8359L100.05 31.5234C99.3421 32.612 98.2796 33.1562 96.8629 33.1562ZM96.6832 25.5781C96.0999 25.5781 95.6103 25.7917 95.2145 26.2188C94.8186 26.6406 94.5738 27.2344 94.4801 28H98.7145V27.8906C98.6728 27.1562 98.4749 26.5885 98.1207 26.1875C97.7665 25.7812 97.2874 25.5781 96.6832 25.5781ZM104.44 22.5V24.5469H106.019V25.6641H104.44V30.9062C104.44 31.2448 104.511 31.5 104.651 31.6719C104.792 31.8385 105.032 31.9219 105.37 31.9219C105.537 31.9219 105.766 31.8906 106.058 31.8281V33C105.677 33.1042 105.308 33.1562 104.948 33.1562C104.302 33.1562 103.815 32.9609 103.487 32.5703C103.159 32.1797 102.995 31.625 102.995 30.9062V25.6641H101.456V24.5469H102.995V22.5H104.44ZM108.455 24.8281L107.635 24.2656C108.119 23.5885 108.369 22.875 108.385 22.125V21H109.815V22.0156C109.81 22.5365 109.679 23.0573 109.424 23.5781C109.174 24.0938 108.851 24.5104 108.455 24.8281ZM116.244 30.7578C116.244 30.3672 116.095 30.0651 115.799 29.8516C115.507 29.6328 114.994 29.4453 114.259 29.2891C113.53 29.1328 112.95 28.9453 112.517 28.7266C112.09 28.5078 111.772 28.2474 111.564 27.9453C111.361 27.6432 111.259 27.2839 111.259 26.8672C111.259 26.1745 111.551 25.5885 112.134 25.1094C112.723 24.6302 113.473 24.3906 114.384 24.3906C115.343 24.3906 116.119 24.638 116.713 25.1328C117.312 25.6276 117.611 26.2604 117.611 27.0312H116.158C116.158 26.6354 115.989 26.2943 115.65 26.0078C115.317 25.7214 114.895 25.5781 114.384 25.5781C113.858 25.5781 113.447 25.6927 113.15 25.9219C112.853 26.151 112.705 26.4505 112.705 26.8203C112.705 27.1693 112.843 27.4323 113.119 27.6094C113.395 27.7865 113.892 27.9557 114.611 28.1172C115.335 28.2786 115.921 28.4714 116.369 28.6953C116.817 28.9193 117.147 29.1901 117.361 29.5078C117.58 29.8203 117.689 30.2031 117.689 30.6562C117.689 31.4115 117.387 32.0182 116.783 32.4766C116.179 32.9297 115.395 33.1562 114.431 33.1562C113.754 33.1562 113.155 33.0365 112.634 32.7969C112.114 32.5573 111.705 32.224 111.408 31.7969C111.116 31.3646 110.97 30.8984 110.97 30.3984H112.416C112.442 30.8828 112.634 31.2682 112.994 31.5547C113.358 31.8359 113.838 31.9766 114.431 31.9766C114.978 31.9766 115.416 31.8672 115.744 31.6484C116.077 31.4245 116.244 31.1276 116.244 30.7578ZM132.594 22.8594H128.938V33H127.446V22.8594H123.797V21.625H132.594V22.8594ZM139.023 33C138.94 32.8333 138.872 32.5365 138.82 32.1094C138.148 32.8073 137.346 33.1562 136.414 33.1562C135.581 33.1562 134.896 32.9219 134.359 32.4531C133.828 31.9792 133.562 31.3802 133.562 30.6562C133.562 29.776 133.896 29.0938 134.562 28.6094C135.234 28.1198 136.177 27.875 137.39 27.875H138.797V27.2109C138.797 26.7057 138.646 26.3047 138.344 26.0078C138.041 25.7057 137.596 25.5547 137.008 25.5547C136.492 25.5547 136.06 25.6849 135.711 25.9453C135.362 26.2057 135.187 26.5208 135.187 26.8906H133.734C133.734 26.4688 133.883 26.0625 134.179 25.6719C134.482 25.276 134.888 24.9635 135.398 24.7344C135.914 24.5052 136.479 24.3906 137.094 24.3906C138.067 24.3906 138.831 24.6354 139.383 25.125C139.935 25.6094 140.221 26.2786 140.242 27.1328V31.0234C140.242 31.7995 140.341 32.4167 140.539 32.875V33H139.023ZM136.625 31.8984C137.078 31.8984 137.508 31.7812 137.914 31.5469C138.32 31.3125 138.614 31.0078 138.797 30.6328V28.8984H137.664C135.893 28.8984 135.008 29.4167 135.008 30.4531C135.008 30.9062 135.159 31.2604 135.461 31.5156C135.763 31.7708 136.151 31.8984 136.625 31.8984ZM144.718 33H143.273V21H144.718V33ZM150.038 29.0859L149.131 30.0312V33H147.686V21H149.131V28.2578L149.905 27.3281L152.538 24.5469H154.295L151.006 28.0781L154.678 33H152.983L150.038 29.0859Z" fill="white"/>
</svg>
